<mxfile host="app.diagrams.net" agent="Mozilla/5.0 (Windows NT 10.0; Win64; x64) AppleWebKit/537.36 (KHTML, like Gecko) Chrome/134.0.0.0 Safari/537.36 Edg/134.0.0.0" version="26.1.1">
  <diagram name="Página-1" id="-K2u0XVffFHJHdEMNZ2N">
    <mxGraphModel dx="872" dy="477" grid="1" gridSize="10" guides="1" tooltips="1" connect="1" arrows="1" fold="1" page="1" pageScale="1" pageWidth="827" pageHeight="1169" math="0" shadow="0">
      <root>
        <mxCell id="0" />
        <mxCell id="1" parent="0" />
        <mxCell id="dbFnvhDrwuD_8-trJE1Y-1" value="" style="rounded=0;whiteSpace=wrap;html=1;" vertex="1" parent="1">
          <mxGeometry x="149" y="75.5" width="131" height="60" as="geometry" />
        </mxCell>
        <mxCell id="dbFnvhDrwuD_8-trJE1Y-2" value="" style="rounded=0;whiteSpace=wrap;html=1;" vertex="1" parent="1">
          <mxGeometry x="155" y="214.5" width="120" height="78" as="geometry" />
        </mxCell>
        <mxCell id="dbFnvhDrwuD_8-trJE1Y-3" value="" style="rounded=0;whiteSpace=wrap;html=1;" vertex="1" parent="1">
          <mxGeometry x="400" y="230" width="120" height="80" as="geometry" />
        </mxCell>
        <mxCell id="dbFnvhDrwuD_8-trJE1Y-8" value="" style="endArrow=classic;html=1;rounded=0;entryX=0.5;entryY=0;entryDx=0;entryDy=0;strokeColor=default;dashed=1;" edge="1" parent="1">
          <mxGeometry width="50" height="50" relative="1" as="geometry">
            <mxPoint x="214" y="135.5" as="sourcePoint" />
            <mxPoint x="214" y="215.5" as="targetPoint" />
          </mxGeometry>
        </mxCell>
        <mxCell id="dbFnvhDrwuD_8-trJE1Y-9" value="" style="endArrow=classic;html=1;rounded=0;entryX=0;entryY=0.5;entryDx=0;entryDy=0;strokeColor=default;dashed=1;" edge="1" parent="1" target="dbFnvhDrwuD_8-trJE1Y-3">
          <mxGeometry width="50" height="50" relative="1" as="geometry">
            <mxPoint x="278.66999999999996" y="270" as="sourcePoint" />
            <mxPoint x="278.66999999999996" y="350" as="targetPoint" />
          </mxGeometry>
        </mxCell>
        <mxCell id="dbFnvhDrwuD_8-trJE1Y-13" value="&lt;div&gt;&lt;i&gt;&lt;b&gt;Aplicación Web&amp;nbsp;&lt;/b&gt;&lt;/i&gt;&lt;span style=&quot;font-family: Calibri, sans-serif; font-size: 11pt; background-color: transparent; color: light-dark(rgb(0, 0, 0), rgb(255, 255, 255));&quot;&gt;(SPA)(React/Angular)&lt;/span&gt;&lt;/div&gt;" style="text;strokeColor=none;align=center;fillColor=none;html=1;verticalAlign=middle;whiteSpace=wrap;rounded=0;" vertex="1" parent="1">
          <mxGeometry x="149" y="85.75" width="126" height="39.5" as="geometry" />
        </mxCell>
        <mxCell id="dbFnvhDrwuD_8-trJE1Y-14" value="&lt;div&gt;&lt;i&gt;&lt;b&gt;API Gateway&lt;/b&gt;&lt;/i&gt;&lt;/div&gt;&lt;div&gt;&lt;font face=&quot;Calibri, sans-serif&quot;&gt;&lt;span style=&quot;font-size: 14.6667px;&quot;&gt;&lt;i&gt;(Enrutamiento,Tarifa límite&lt;/i&gt;&lt;/span&gt;&lt;/font&gt;&lt;/div&gt;&lt;div&gt;&lt;br&gt;&lt;/div&gt;&lt;div&gt;&lt;i&gt;&lt;font&gt;&lt;br&gt;&lt;/font&gt;&lt;/i&gt;&lt;/div&gt;" style="text;strokeColor=none;align=center;fillColor=none;html=1;verticalAlign=middle;whiteSpace=wrap;rounded=0;" vertex="1" parent="1">
          <mxGeometry x="460" y="75.5" width="360" height="45" as="geometry" />
        </mxCell>
        <mxCell id="dbFnvhDrwuD_8-trJE1Y-15" value="&lt;div&gt;&lt;i&gt;&lt;b&gt;Servicio externo de notificaciones&lt;/b&gt;&lt;/i&gt;&lt;/div&gt;&lt;div&gt;&lt;i style=&quot;background-color: transparent; color: light-dark(rgb(0, 0, 0), rgb(255, 255, 255));&quot;&gt;Relay de envío SMS/correos electrónicos&lt;/i&gt;&lt;/div&gt;&lt;div&gt;&amp;nbsp;&lt;/div&gt;" style="text;strokeColor=none;align=center;fillColor=none;html=1;verticalAlign=middle;whiteSpace=wrap;rounded=0;" vertex="1" parent="1">
          <mxGeometry x="400" y="252.5" width="120" height="50" as="geometry" />
        </mxCell>
      </root>
    </mxGraphModel>
  </diagram>
</mxfile>
